<?xml version="1.0" encoding="utf-8"?>
<!-- Generator: Adobe Illustrator 16.0.0, SVG Export Plug-In . SVG Version: 6.00 Build 0)  -->
<!DOCTYPE svg PUBLIC "-//W3C//DTD SVG 1.1//EN" "http://www.w3.org/Graphics/SVG/1.1/DTD/svg11.dtd">
<svg version="1.1" id="Layer_1" xmlns="http://www.w3.org/2000/svg" xmlns:xlink="http://www.w3.org/1999/xlink" x="0px" y="0px"
	 width="150px" height="70px" viewBox="0 0 150 70" enable-background="new 0 0 150 70" xml:space="preserve">
<g>
	<g>
		<path fill="#333333" d="M76.131,40.993c-9.788-0.29-14.955-5.909-14.955-16.248v-9.257h-2.438V6.843h16.828v8.601h-2.351v7.908
			c0,6.994,1.586,6.994,2.858,6.994c1.428,0,2.902,0,2.902-7.038v-7.734h-2.35V6.843h15.871v8.601h-2.352v9.083
			c0,13.61-7.605,16.465-13.986,16.465H76.131z"/>
		<path fill="#FFFFFF" d="M76.146,39.998c-9.273-0.276-13.975-5.407-13.975-15.253V14.493h-2.438V7.839h14.837v6.61H72.22v8.904
			c0,7.378,1.824,7.989,3.854,7.989c2.209,0,3.898-0.592,3.898-8.033V14.58h-2.352V7.839h13.881v6.61H89.15v10.079
			c0,10.266-4.369,15.47-12.99,15.47H76.146z"/>
		<path fill="#4D81A3" d="M60.232,8.336h13.841v5.614h-2.351v9.402c0,7.007,1.567,8.487,4.352,8.487
			c2.656,0,4.396-1.045,4.396-8.531v-9.228h-2.352V8.336h12.885v5.614h-2.352v10.577c0,10.315-4.309,14.972-12.492,14.972
			c-8.79-0.261-13.491-4.874-13.491-14.755v-10.75h-2.438V8.336z"/>
	</g>
	<g>
		<g>
			<path fill="#808285" stroke="#333333" stroke-width="0.5" stroke-miterlimit="10" d="M55.376,23.595
				c-0.36,1.454-1.497,2.594-1.502,2.614c0.003,0.022-1.014-1.392-0.598-3.114c0.417-1.722,2.016-2.638,2.002-2.615
				C55.272,20.5,55.72,22.141,55.376,23.595z"/>
		</g>
		<g>
			<path fill="#808285" stroke="#333333" stroke-width="0.5" stroke-miterlimit="10" d="M56.079,27.418
				c-0.766,0.971-2.14,0.904-2.146,0.889c-0.025,0.021-0.186-2.015,0.765-3.005c0.925-0.963,2.275-0.48,2.27-0.497
				C56.945,24.823,56.825,26.471,56.079,27.418z"/>
		</g>
		<g>
			<path fill="#808285" stroke="#333333" stroke-width="0.5" stroke-miterlimit="10" d="M56.389,30.6
				c-0.555,1.084-1.914,1.298-1.924,1.285c-0.019,0.022-0.585-1.896,0.14-3.022c0.704-1.098,2.125-0.911,2.117-0.926
				C56.705,27.955,56.93,29.538,56.389,30.6z"/>
		</g>
		<g>
			<path fill="#808285" stroke="#333333" stroke-width="0.5" stroke-miterlimit="10" d="M57.323,33.603
				c-0.331,1.164-1.62,1.646-1.632,1.635c-0.014,0.025-0.942-1.726-0.457-2.955c0.471-1.197,1.898-1.304,1.888-1.317
				C57.11,30.986,57.646,32.462,57.323,33.603z"/>
		</g>
		<g>
			<path fill="#808285" stroke="#333333" stroke-width="0.5" stroke-miterlimit="10" d="M58.821,36.345
				c-0.098,1.207-1.265,1.934-1.279,1.926c-0.009,0.025-1.256-1.506-1.021-2.799c0.228-1.261,1.604-1.648,1.591-1.66
				C58.104,33.833,58.915,35.163,58.821,36.345z"/>
		</g>
		<g>
			<path fill="#808285" stroke="#333333" stroke-width="0.5" stroke-miterlimit="10" d="M60.822,38.743
				c0.142,1.205-0.857,2.149-0.874,2.144c-0.004,0.026-1.529-1.235-1.549-2.551c-0.022-1.282,1.249-1.934,1.234-1.942
				C59.629,36.415,60.681,37.562,60.822,38.743z"/>
		</g>
		<g>
			<path fill="#808285" stroke="#333333" stroke-width="0.5" stroke-miterlimit="10" d="M63.267,40.71
				c0.385,1.16-0.406,2.284-0.424,2.281c0,0.028-1.76-0.917-2.04-2.207c-0.277-1.258,0.842-2.146,0.826-2.152
				C61.628,38.653,62.887,39.575,63.267,40.71z"/>
		</g>
		<g>
			<path fill="#808285" stroke="#333333" stroke-width="0.5" stroke-miterlimit="10" d="M66.095,42.166
				c0.63,1.061,0.08,2.321,0.062,2.321c0.004,0.029-1.951-0.55-2.491-1.766c-0.533-1.182,0.39-2.274,0.373-2.277
				C64.043,40.466,65.476,41.127,66.095,42.166z"/>
		</g>
		<g>
			<path fill="#808285" stroke="#333333" stroke-width="0.5" stroke-miterlimit="10" d="M69.248,43.022
				c0.873,0.909,0.595,2.254,0.575,2.259c0.008,0.028-2.101-0.136-2.899-1.222c-0.786-1.053-0.096-2.311-0.115-2.309
				C66.815,41.771,68.389,42.134,69.248,43.022z"/>
		</g>
		<g>
			<path fill="#808285" stroke="#333333" stroke-width="0.5" stroke-miterlimit="10" d="M51.569,27.393
				c0.784,1.234,2.19,0.905,2.182,0.923c-0.022-0.013,0.08-1.943-0.495-3.199c-0.593-1.274-1.964-1.363-1.975-1.346
				C51.251,23.755,50.755,26.139,51.569,27.393z"/>
		</g>
		<g>
			<path fill="#808285" stroke="#333333" stroke-width="0.5" stroke-miterlimit="10" d="M51.968,31.484
				c1.015,1.024,2.325,0.427,2.321,0.444c-0.023-0.008-0.311-1.881-1.135-2.952c-0.846-1.086-2.208-0.893-2.214-0.875
				C50.911,28.089,50.92,30.444,51.968,31.484z"/>
		</g>
		<g>
			<path fill="#808285" stroke="#333333" stroke-width="0.5" stroke-miterlimit="10" d="M53.17,35.35
				c1.192,0.79,2.358-0.052,2.358-0.034c-0.024-0.005-0.67-1.767-1.691-2.63c-1.045-0.875-2.339-0.413-2.342-0.395
				C51.463,32.282,51.942,34.548,53.17,35.35z"/>
		</g>
		<g>
			<path fill="#808285" stroke="#333333" stroke-width="0.5" stroke-miterlimit="10" d="M55.096,38.879
				c1.321,0.538,2.298-0.517,2.301-0.5c-0.025-0.001-0.999-1.601-2.165-2.235c-1.192-0.645-2.369,0.065-2.369,0.083
				C52.832,36.225,53.74,38.333,55.096,38.879z"/>
		</g>
		<g>
			<path fill="#808285" stroke="#333333" stroke-width="0.5" stroke-miterlimit="10" d="M57.671,41.964
				c1.401,0.27,2.15-0.959,2.157-0.941c-0.025,0.003-1.295-1.379-2.56-1.773c-1.291-0.396-2.305,0.532-2.301,0.55
				C54.936,39.801,56.234,41.691,57.671,41.964z"/>
		</g>
		<g>
			<path fill="#808285" stroke="#333333" stroke-width="0.5" stroke-miterlimit="10" d="M60.817,44.495
				c1.437-0.006,1.926-1.361,1.935-1.348c-0.025,0.01-1.559-1.104-2.877-1.245c-1.346-0.137-2.155,0.976-2.148,0.991
				C57.695,42.901,59.344,44.509,60.817,44.495z"/>
		</g>
		<g>
			<path fill="#808285" stroke="#333333" stroke-width="0.5" stroke-miterlimit="10" d="M64.456,46.367
				c1.431-0.292,1.632-1.72,1.644-1.708c-0.025,0.016-1.792-0.773-3.12-0.654c-1.359,0.129-1.928,1.381-1.919,1.395
				C61.03,45.415,62.989,46.673,64.456,46.367z"/>
		</g>
		<g>
			<path fill="#808285" stroke="#333333" stroke-width="0.5" stroke-miterlimit="10" d="M68.513,47.47
				c1.385-0.58,1.276-2.019,1.29-2.009c-0.024,0.021-1.989-0.387-3.292-0.006c-1.332,0.398-1.632,1.739-1.62,1.752
				C64.862,47.228,67.091,48.071,68.513,47.47z"/>
		</g>
		<g>
			<path fill="#808285" stroke="#333333" stroke-width="0.5" stroke-miterlimit="10" d="M73.047,45.264
				c0.009,0.118,0.017,0.235,0.024,0.354c-1.526,0.105-3.003,0.025-4.417-0.219c0.02-0.115,0.041-0.232,0.062-0.349
				C70.102,45.289,71.551,45.368,73.047,45.264z"/>
		</g>
	</g>
	<g>
		<g>
			<path fill="#808285" stroke="#333333" stroke-width="0.5" stroke-miterlimit="10" d="M95.904,23.661
				c0.346,1.458,1.471,2.607,1.477,2.629c-0.004,0.022,1.027-1.382,0.627-3.109c-0.4-1.726-1.99-2.657-1.977-2.634
				C96.037,20.567,95.574,22.204,95.904,23.661z"/>
		</g>
		<g>
			<path fill="#808285" stroke="#333333" stroke-width="0.5" stroke-miterlimit="10" d="M95.164,27.478
				c0.758,0.979,2.131,0.925,2.139,0.909c0.023,0.022,0.205-2.012-0.738-3.012c-0.914-0.972-2.27-0.502-2.264-0.518
				C94.322,24.874,94.428,26.522,95.164,27.478z"/>
		</g>
		<g>
			<path fill="#808285" stroke="#333333" stroke-width="0.5" stroke-miterlimit="10" d="M94.824,30.654
				c0.543,1.09,1.9,1.318,1.912,1.305c0.018,0.023,0.604-1.891-0.111-3.023c-0.693-1.104-2.115-0.931-2.107-0.946
				C94.533,28.008,94.293,29.589,94.824,30.654z"/>
		</g>
		<g>
			<path fill="#808285" stroke="#333333" stroke-width="0.5" stroke-miterlimit="10" d="M93.861,33.649
				c0.32,1.168,1.604,1.662,1.617,1.65c0.012,0.025,0.957-1.716,0.484-2.949c-0.459-1.204-1.887-1.323-1.875-1.336
				C94.1,31.035,93.549,32.506,93.861,33.649z"/>
		</g>
		<g>
			<path fill="#808285" stroke="#333333" stroke-width="0.5" stroke-miterlimit="10" d="M92.338,36.377
				c0.086,1.208,1.246,1.946,1.26,1.938c0.01,0.025,1.271-1.494,1.049-2.789c-0.217-1.264-1.59-1.664-1.576-1.676
				C93.078,33.872,92.254,35.194,92.338,36.377z"/>
		</g>
		<g>
			<path fill="#808285" stroke="#333333" stroke-width="0.5" stroke-miterlimit="10" d="M90.314,38.756
				c-0.154,1.205,0.836,2.157,0.852,2.151c0.004,0.028,1.541-1.221,1.574-2.535c0.035-1.281-1.23-1.945-1.215-1.953
				C91.527,36.44,90.465,37.576,90.314,38.756z"/>
		</g>
		<g>
			<path fill="#808285" stroke="#333333" stroke-width="0.5" stroke-miterlimit="10" d="M87.85,40.7
				c-0.396,1.155,0.385,2.287,0.402,2.284c0,0.029,1.768-0.899,2.063-2.187c0.287-1.255-0.822-2.154-0.807-2.16
				C89.508,38.659,88.24,39.569,87.85,40.7z"/>
		</g>
		<g>
			<path fill="#808285" stroke="#333333" stroke-width="0.5" stroke-miterlimit="10" d="M85.008,42.128
				c-0.641,1.055-0.104,2.32-0.084,2.322c-0.004,0.029,1.955-0.531,2.508-1.742c0.543-1.176-0.369-2.279-0.352-2.281
				C87.076,40.448,85.637,41.096,85.008,42.128z"/>
		</g>
		<g>
			<path fill="#808285" stroke="#333333" stroke-width="0.5" stroke-miterlimit="10" d="M81.848,42.955
				c-0.881,0.901-0.617,2.248-0.598,2.253c-0.008,0.029,2.102-0.115,2.912-1.193c0.795-1.045,0.117-2.31,0.137-2.309
				C84.291,41.728,82.713,42.074,81.848,42.955z"/>
		</g>
		<g>
			<path fill="#808285" stroke="#333333" stroke-width="0.5" stroke-miterlimit="10" d="M99.674,27.495
				c-0.795,1.227-2.197,0.884-2.189,0.902c0.021-0.012-0.063-1.944,0.525-3.194c0.605-1.268,1.977-1.344,1.988-1.327
				C100.027,23.86,100.5,26.249,99.674,27.495z"/>
		</g>
		<g>
			<path fill="#808285" stroke="#333333" stroke-width="0.5" stroke-miterlimit="10" d="M99.236,31.583
				c-1.025,1.014-2.33,0.404-2.326,0.422c0.023-0.008,0.328-1.878,1.164-2.94c0.855-1.079,2.215-0.873,2.223-0.855
				C100.326,28.198,100.295,30.553,99.236,31.583z"/>
		</g>
		<g>
			<path fill="#808285" stroke="#333333" stroke-width="0.5" stroke-miterlimit="10" d="M97.998,35.437
				c-1.201,0.779-2.357-0.074-2.357-0.057c0.023-0.006,0.688-1.761,1.715-2.614c1.053-0.864,2.344-0.391,2.348-0.372
				C99.732,32.386,99.232,34.646,97.998,35.437z"/>
		</g>
		<g>
			<path fill="#808285" stroke="#333333" stroke-width="0.5" stroke-miterlimit="10" d="M96.037,38.946
				c-1.326,0.525-2.293-0.539-2.295-0.521c0.023,0,1.014-1.59,2.186-2.215c1.199-0.633,2.369,0.089,2.367,0.105
				C98.326,36.313,97.398,38.415,96.037,38.946z"/>
		</g>
		<g>
			<path fill="#808285" stroke="#333333" stroke-width="0.5" stroke-miterlimit="10" d="M93.434,42.007
				c-1.404,0.258-2.141-0.979-2.148-0.963c0.025,0.005,1.309-1.365,2.576-1.748c1.297-0.384,2.301,0.555,2.297,0.572
				C96.189,39.87,94.873,41.749,93.434,42.007z"/>
		</g>
		<g>
			<path fill="#808285" stroke="#333333" stroke-width="0.5" stroke-miterlimit="10" d="M90.264,44.509
				c-1.436-0.021-1.912-1.381-1.922-1.367c0.025,0.01,1.57-1.088,2.889-1.217c1.348-0.125,2.146,0.996,2.139,1.012
				C93.4,42.944,91.736,44.536,90.264,44.509z"/>
		</g>
		<g>
			<path fill="#808285" stroke="#333333" stroke-width="0.5" stroke-miterlimit="10" d="M86.605,46.346
				c-1.428-0.306-1.615-1.736-1.627-1.724c0.025,0.016,1.799-0.756,3.127-0.625c1.357,0.143,1.914,1.4,1.906,1.414
				C90.041,45.426,88.07,46.665,86.605,46.346z"/>
		</g>
		<g>
			<path fill="#808285" stroke="#333333" stroke-width="0.5" stroke-miterlimit="10" d="M82.539,47.409
				c-1.379-0.593-1.256-2.031-1.27-2.021c0.023,0.021,1.992-0.368,3.291,0.025c1.328,0.411,1.615,1.754,1.604,1.767
				C86.191,47.202,83.955,48.024,82.539,47.409z"/>
		</g>
		<g>
			<path fill="#808285" stroke="#333333" stroke-width="0.5" stroke-miterlimit="10" d="M78.027,45.159
				c-0.01,0.119-0.02,0.236-0.027,0.354c1.523,0.12,3.002,0.054,4.418-0.175c-0.02-0.117-0.039-0.234-0.059-0.351
				C80.971,45.214,79.521,45.278,78.027,45.159z"/>
		</g>
	</g>
	<g>
		<g>
			<path fill="#607A92" stroke="#333333" stroke-width="0.25" stroke-miterlimit="10" d="M58.339,55.548
				c-4.246,0.611-8.468,1.448-12.646,2.512c0.971-2.17,2.013-4.329,3.126-6.476c-1.9-1.495-3.861-2.948-5.883-4.355
				c4.564-1.161,9.174-2.075,13.812-2.742C57.278,48.174,57.809,51.861,58.339,55.548z"/>
			<path fill="#607A92" stroke="#333333" stroke-width="0.25" stroke-miterlimit="10" d="M92.897,55.549
				c4.245,0.61,8.467,1.447,12.646,2.511c-0.972-2.17-2.014-4.329-3.127-6.476c1.899-1.495,3.861-2.948,5.883-4.355
				c-4.563-1.161-9.174-2.075-13.81-2.742C93.958,48.174,93.428,51.861,92.897,55.549z"/>
			<path fill="#4D81A3" stroke="#333333" stroke-width="0.25" stroke-miterlimit="10" d="M99.698,55.018
				c-15.896-3.173-32.264-3.173-48.16,0c-0.729-3.653-1.458-7.307-2.188-10.961c17.34-3.461,35.195-3.461,52.535,0.001
				C101.156,47.711,100.428,51.364,99.698,55.018z"/>
			<g>
				<path fill="#FFFFFF" stroke="#333333" stroke-width="0.5" stroke-miterlimit="10" d="M65.537,43.759
					c0.066,0.864,0.132,1.729,0.198,2.593c-0.527,0.041-1.054,0.084-1.581,0.131c-0.038-0.425-0.076-0.85-0.113-1.275
					c-0.304,0.027-0.608,0.056-0.912,0.084c0.138,1.44,0.276,2.881,0.414,4.32c0.29-0.027,0.581-0.055,0.871-0.08
					c0.039,0.441,0.078,0.883,0.118,1.324c-1.288,0.115-2.575,0.249-3.859,0.403c-0.053-0.439-0.106-0.88-0.159-1.32
					c0.286-0.034,0.572-0.067,0.859-0.101c-0.163-1.438-0.326-2.874-0.488-4.312c-0.311,0.035-0.622,0.071-0.932,0.108
					c0.051,0.424,0.102,0.848,0.153,1.271c-0.525,0.063-1.051,0.13-1.576,0.199c-0.114-0.859-0.229-1.719-0.343-2.578
					C60.631,44.203,63.082,43.946,65.537,43.759z"/>
				<path fill="#FFFFFF" stroke="#333333" stroke-width="0.5" stroke-miterlimit="10" d="M71.154,50.625
					c-0.541,0.02-1.042-0.037-1.508-0.168c-0.465-0.131-0.872-0.339-1.221-0.627c-0.349-0.286-0.631-0.655-0.847-1.106
					c-0.216-0.45-0.346-0.987-0.387-1.613c-0.036-0.538,0.023-1.037,0.179-1.494c0.156-0.457,0.393-0.858,0.713-1.2
					c0.32-0.343,0.712-0.614,1.176-0.813c0.464-0.199,0.984-0.311,1.557-0.332c0.675-0.024,1.264,0.049,1.762,0.214
					s0.913,0.408,1.241,0.728c0.329,0.318,0.572,0.708,0.731,1.167c0.159,0.458,0.239,0.968,0.242,1.528
					c0.004,0.566-0.075,1.075-0.233,1.527c-0.158,0.45-0.393,0.834-0.704,1.152c-0.31,0.317-0.69,0.564-1.142,0.742
					C72.262,50.506,71.743,50.604,71.154,50.625z M71.098,49.056c0.168-0.006,0.316-0.062,0.442-0.166
					c0.127-0.104,0.235-0.247,0.326-0.43c0.089-0.183,0.156-0.401,0.199-0.656c0.042-0.254,0.06-0.538,0.051-0.852
					c-0.008-0.3-0.039-0.583-0.093-0.848c-0.054-0.266-0.132-0.494-0.236-0.688c-0.103-0.194-0.23-0.345-0.383-0.453
					s-0.334-0.159-0.544-0.151c-0.167,0.006-0.317,0.063-0.451,0.172c-0.133,0.108-0.245,0.259-0.335,0.449
					c-0.089,0.19-0.155,0.417-0.198,0.68c-0.042,0.262-0.056,0.546-0.042,0.852c0.015,0.327,0.059,0.62,0.13,0.88
					c0.072,0.261,0.163,0.481,0.273,0.665c0.11,0.182,0.239,0.32,0.387,0.414C70.771,49.017,70.929,49.062,71.098,49.056z"/>
				<path fill="#FFFFFF" stroke="#333333" stroke-width="0.5" stroke-miterlimit="10" d="M76.272,50.366
					c0.002-0.443,0.005-0.887,0.007-1.33c0.218,0.001,0.436,0.003,0.653,0.005c0.015-1.446,0.029-2.893,0.045-4.34
					c-0.226-0.002-0.45-0.004-0.676-0.005c0.003-0.44,0.005-0.88,0.007-1.32c1.118,0.006,2.236,0.026,3.354,0.061
					c0.667,0.021,1.257,0.132,1.765,0.33c0.507,0.2,0.929,0.463,1.267,0.784c0.335,0.321,0.582,0.695,0.742,1.118
					c0.159,0.424,0.222,0.876,0.191,1.354c-0.072,1.145-0.478,2.006-1.203,2.59c-0.726,0.585-1.726,0.848-3.018,0.809
					C78.362,50.391,77.317,50.372,76.272,50.366z M81.166,46.895c0.012-0.267-0.008-0.526-0.059-0.779
					c-0.05-0.252-0.136-0.478-0.258-0.676c-0.123-0.198-0.285-0.359-0.488-0.484c-0.201-0.123-0.448-0.19-0.738-0.199
					c-0.138-0.004-0.276-0.008-0.414-0.012c-0.039,1.445-0.079,2.892-0.119,4.338c0.134,0.004,0.267,0.008,0.4,0.012
					c0.28,0.002,0.523-0.052,0.727-0.16c0.205-0.11,0.375-0.264,0.511-0.462c0.135-0.197,0.238-0.432,0.31-0.702
					C81.109,47.499,81.152,47.207,81.166,46.895z"/>
				<path fill="#FFFFFF" stroke="#333333" stroke-width="0.5" stroke-miterlimit="10" d="M88.405,51.2
					c-0.538-0.055-1.028-0.18-1.472-0.374c-0.442-0.193-0.817-0.456-1.123-0.789c-0.307-0.331-0.536-0.736-0.688-1.213
					c-0.152-0.476-0.208-1.025-0.162-1.65c0.039-0.538,0.167-1.024,0.384-1.455c0.217-0.432,0.508-0.797,0.871-1.092
					c0.364-0.295,0.791-0.51,1.278-0.643c0.486-0.134,1.017-0.173,1.588-0.114c0.673,0.068,1.247,0.222,1.718,0.454
					c0.473,0.232,0.85,0.53,1.132,0.892c0.281,0.361,0.471,0.78,0.565,1.257c0.095,0.476,0.104,0.991,0.03,1.547
					c-0.075,0.562-0.224,1.055-0.442,1.48c-0.22,0.425-0.506,0.772-0.857,1.045c-0.351,0.271-0.763,0.464-1.233,0.577
					C89.521,51.234,88.992,51.261,88.405,51.2z M88.565,49.639c0.169,0.017,0.323-0.018,0.463-0.104
					c0.14-0.085,0.267-0.213,0.382-0.381c0.114-0.168,0.21-0.376,0.288-0.623c0.076-0.246,0.133-0.524,0.167-0.836
					c0.033-0.298,0.042-0.583,0.024-0.853c-0.017-0.271-0.063-0.508-0.139-0.715c-0.075-0.206-0.182-0.373-0.317-0.501
					c-0.136-0.129-0.311-0.204-0.521-0.226c-0.165-0.017-0.322,0.019-0.471,0.108c-0.146,0.089-0.277,0.223-0.393,0.399
					c-0.114,0.176-0.212,0.392-0.29,0.646c-0.077,0.253-0.131,0.533-0.159,0.838c-0.03,0.326-0.027,0.622,0.008,0.89
					s0.096,0.499,0.179,0.695c0.085,0.196,0.193,0.351,0.327,0.464C88.247,49.555,88.397,49.621,88.565,49.639z"/>
			</g>
		</g>
	</g>
</g>
<g>
	<path fill="#A7A9AC" stroke="#333333" stroke-miterlimit="10" d="M21.554,25.113H11.93v-3.144h2.28l-0.504-1.633h-4.92
		l-0.504,1.633h1.872v3.144H2.522v-3.144h1.632l3.24-10.536H6.41V8.336h9.216l4.248,13.633h1.68V25.113z M9.674,17.457h3.144
		l-1.584-5.184L9.674,17.457z"/>
	<path fill="#A7A9AC" stroke="#333333" stroke-miterlimit="10" d="M21.554,8.336h7.776c1.392,0,2.52,0.141,3.384,0.42
		c0.864,0.28,1.536,0.656,2.016,1.129c0.48,0.472,0.804,1.016,0.972,1.632s0.252,1.268,0.252,1.956c0,0.8-0.168,1.496-0.504,2.088
		s-0.792,1.084-1.368,1.476c-0.576,0.393-1.244,0.688-2.004,0.888c-0.76,0.201-1.572,0.301-2.436,0.301h-1.824v3.72h1.464v3.168
		h-7.728v-3.168h1.344V11.481h-1.344V8.336z M27.818,11.457v4.176h1.08c0.704,0,1.272-0.171,1.704-0.516
		c0.432-0.344,0.648-0.836,0.648-1.476c0-0.721-0.196-1.264-0.588-1.632s-0.94-0.553-1.644-0.553H27.818z"/>
	<path fill="#A7A9AC" stroke="#333333" stroke-miterlimit="10" d="M35.579,8.336h7.8c1.392,0,2.52,0.129,3.385,0.385
		c0.863,0.256,1.539,0.607,2.027,1.056s0.816,0.972,0.984,1.572c0.168,0.6,0.252,1.244,0.252,1.932c0,0.464-0.088,0.896-0.264,1.296
		c-0.178,0.4-0.42,0.748-0.732,1.044c-0.313,0.297-0.68,0.544-1.104,0.744c-0.426,0.2-0.885,0.332-1.381,0.396
		c0.416,0.063,0.813,0.195,1.188,0.396c0.377,0.2,0.709,0.452,0.996,0.756c0.289,0.305,0.52,0.648,0.697,1.032
		c0.176,0.384,0.264,0.792,0.264,1.224c0,0.513,0.039,0.912,0.119,1.2s0.232,0.433,0.457,0.433c0.367,0,0.551-0.256,0.551-0.769
		v-0.792h1.609v1.32c0,0.496-0.057,0.976-0.168,1.439c-0.113,0.465-0.305,0.872-0.576,1.225c-0.273,0.352-0.633,0.636-1.08,0.852
		c-0.449,0.216-1.008,0.324-1.68,0.324c-1.584,0-2.757-0.392-3.517-1.176c-0.76-0.784-1.14-1.88-1.14-3.288
		c0-0.544-0.024-0.992-0.072-1.344c-0.048-0.353-0.156-0.628-0.324-0.828s-0.412-0.34-0.732-0.42c-0.32-0.08-0.744-0.12-1.272-0.12
		v3.72h1.464v3.168h-7.752v-3.168h1.344V11.481h-1.344V8.336z M41.867,11.457v4.08h1.08c0.704,0,1.264-0.164,1.68-0.492
		c0.416-0.327,0.624-0.812,0.624-1.451c0-0.721-0.188-1.256-0.564-1.608c-0.376-0.352-0.916-0.528-1.62-0.528H41.867z"/>
	<path fill="#A7A9AC" stroke="#333333" stroke-miterlimit="10" d="M98.822,8.48h14.473v5.305h-4.152v-2.137h-3.84v3.313h4.561v3.192
		h-4.561v3.911h3.84v-2.231h4.152v5.424H98.822v-3.192h1.514V11.648h-1.514V8.48z"/>
	<path fill="#A7A9AC" stroke="#333333" stroke-miterlimit="10" d="M113.295,25.257v-3.12h1.393v-10.56h-1.393V8.48h8.953
		c2,0,3.48,0.356,4.439,1.068c0.961,0.712,1.439,1.725,1.439,3.036c0,0.512-0.039,0.956-0.119,1.332s-0.209,0.712-0.385,1.008
		s-0.416,0.557-0.719,0.78c-0.305,0.224-0.682,0.424-1.129,0.6c0.432,0.128,0.84,0.3,1.225,0.517
		c0.385,0.216,0.721,0.491,1.008,0.827s0.516,0.732,0.684,1.188s0.252,0.972,0.252,1.548c0,1.696-0.508,2.933-1.523,3.708
		c-1.016,0.776-2.684,1.164-5.004,1.164H113.295z M119.656,11.648v3.601h1.463c0.641,0,1.072-0.164,1.297-0.492
		s0.336-0.78,0.336-1.356c0-0.56-0.148-0.991-0.443-1.296c-0.297-0.304-0.678-0.456-1.141-0.456H119.656z M121.576,22.137
		c0.512,0,0.963-0.18,1.355-0.54c0.393-0.359,0.588-0.867,0.588-1.523c0-0.608-0.168-1.112-0.504-1.513
		c-0.336-0.399-0.84-0.6-1.512-0.6h-1.848v4.176H121.576z"/>
	<path fill="#A7A9AC" stroke="#333333" stroke-miterlimit="10" d="M147.558,25.257h-9.623v-3.144h2.279l-0.504-1.633h-4.92
		l-0.504,1.633h1.873v3.144h-7.633v-3.144h1.633l3.24-10.536h-0.984V8.48h9.215l4.248,13.633h1.68V25.257z M135.679,17.601h3.145
		l-1.584-5.184L135.679,17.601z"/>
</g>
</svg>
